<svg xmlns="http://www.w3.org/2000/svg" xmlns:xlink="http://www.w3.org/1999/xlink" id="terminal" baseProfile="full" viewBox="0 0 640 444" width="640" version="1.1">
    <defs>
        <termtosvg:template_settings xmlns:termtosvg="https://github.com/nbedos/termtosvg">
            <termtosvg:screen_geometry columns="80" rows="26"/>
            <termtosvg:animation type="css"/>
        </termtosvg:template_settings>
        <style type="text/css" id="generated-style"><![CDATA[#screen {
                font-family: 'DejaVu Sans Mono', monospace;
                font-style: normal;
                font-size: 14px;
            }

        text {
            dominant-baseline: text-before-edge;
            white-space: pre;
        }
    
            :root {
                --animation-duration: 7357ms;
            }

            @keyframes roll {
                0.000%{transform:translateY(0px)}
0.652%{transform:translateY(-476px)}
4.730%{transform:translateY(-952px)}
6.783%{transform:translateY(-1428px)}
7.870%{transform:translateY(-1904px)}
10.371%{transform:translateY(-2380px)}
12.342%{transform:translateY(-2856px)}
13.321%{transform:translateY(-3332px)}
15.699%{transform:translateY(-3808px)}
18.513%{transform:translateY(-4284px)}
22.591%{transform:translateY(-4760px)}
23.597%{transform:translateY(-5236px)}
25.010%{transform:translateY(-5712px)}
26.845%{transform:translateY(-6188px)}
30.923%{transform:translateY(-6664px)}
32.472%{transform:translateY(-7140px)}
35.476%{transform:translateY(-7616px)}
39.554%{transform:translateY(-8092px)}
43.578%{transform:translateY(-8568px)}
44.556%{transform:translateY(-9044px)}
46.296%{transform:translateY(-9520px)}
50.374%{transform:translateY(-9996px)}
54.452%{transform:translateY(-10472px)}
56.259%{transform:translateY(-10948px)}
57.659%{transform:translateY(-11424px)}
59.508%{transform:translateY(-11900px)}
63.586%{transform:translateY(-12376px)}
67.663%{transform:translateY(-12852px)}
69.077%{transform:translateY(-13328px)}
72.543%{transform:translateY(-13804px)}
76.621%{transform:translateY(-14280px)}
80.699%{transform:translateY(-14756px)}
82.371%{transform:translateY(-15232px)}
86.448%{transform:translateY(-15708px)}
87.114%{transform:translateY(-16184px)}
91.192%{transform:translateY(-16660px)}
95.270%{transform:translateY(-17136px)}
95.895%{transform:translateY(-17612px)}
99.973%{transform:translateY(-18088px)}
100.000%{transform:translateY(-18088px)}
            }

            #screen_view {
                animation-duration: 7357ms;
                animation-iteration-count:infinite;
                animation-name:roll;
                animation-timing-function: steps(1,end);
                animation-fill-mode: forwards;
            }
        ]]></style>
        <style type="text/css" id="user-style">
            /* The colors defined below are the default 16 colors used for rendering text of the terminal. Adjust
               them as needed.
               gjm8 color theme (source: https://terminal.sexy/) */
            .foreground {fill: #c5c5c5;}
            .background {fill: #1c1c1c;}
            .color0 {fill: #1c1c1c;}
            .color1 {fill: #ff005b;}
            .color2 {fill: #cee318;}
            .color3 {fill: #ffe755;}
            .color4 {fill: #048ac7;}
            .color5 {fill: #833c9f;}
            .color6 {fill: #0ac1cd;}
            .color7 {fill: #e5e5e5;}
            .color8 {fill: #1c1c1c;}
            .color9 {fill: #ff005b;}
            .color10 {fill: #cee318;}
            .color11 {fill: #ffe755;}
            .color12 {fill: #048ac7;}
            .color13 {fill: #833c9f;}
            .color14 {fill: #0ac1cd;}
            .color15 {fill: #e5e5e5;}
        </style>
    </defs>
    <svg id="screen" width="640" height="442" viewBox="0 0 640 442" preserveAspectRatio="xMidYMin slice"><rect class="background" height="100%" width="100%" x="0" y="0"/><defs><g id="g1"><text x="0" textLength="8" class="background"> </text><text x="8" textLength="632" class="foreground">                                                                               </text></g><g id="g2"><text x="0" textLength="16" font-weight="bold" class="color10">&#10140; </text><text x="16" textLength="8" class="foreground"> </text><text x="24" textLength="8" class="color6">~</text><text x="32" textLength="8" class="foreground"> </text><text x="40" textLength="8" class="background"> </text><text x="48" textLength="592" class="foreground">                                                                          </text></g><g id="g3"><text x="0" textLength="16" font-weight="bold" class="color10">&#10140; </text><text x="16" textLength="8" class="foreground"> </text><text x="24" textLength="8" class="color6">~</text><text x="32" textLength="16" class="foreground"> i</text><text x="48" textLength="8" class="background"> </text><text x="56" textLength="584" class="foreground">                                                                         </text></g><g id="g4"><text x="0" textLength="16" font-weight="bold" class="color10">&#10140; </text><text x="16" textLength="8" class="foreground"> </text><text x="24" textLength="8" class="color6">~</text><text x="32" textLength="24" class="foreground"> ir</text><text x="56" textLength="8" class="background"> </text><text x="64" textLength="576" class="foreground">                                                                        </text></g><g id="g5"><text x="0" textLength="16" font-weight="bold" class="color10">&#10140; </text><text x="16" textLength="8" class="foreground"> </text><text x="24" textLength="8" class="color6">~</text><text x="32" textLength="32" class="foreground"> ire</text><text x="64" textLength="8" class="background"> </text><text x="72" textLength="568" class="foreground">                                                                       </text></g><g id="g6"><text x="0" textLength="16" font-weight="bold" class="color10">&#10140; </text><text x="16" textLength="8" class="foreground"> </text><text x="24" textLength="8" class="color6">~</text><text x="32" textLength="40" class="foreground"> ired</text><text x="72" textLength="8" class="background"> </text><text x="80" textLength="560" class="foreground">                                                                      </text></g><g id="g7"><text x="0" textLength="16" font-weight="bold" class="color10">&#10140; </text><text x="16" textLength="8" class="foreground"> </text><text x="24" textLength="8" class="color6">~</text><text x="32" textLength="48" class="foreground"> iredi</text><text x="80" textLength="8" class="background"> </text><text x="88" textLength="552" class="foreground">                                                                     </text></g><g id="g8"><text x="0" textLength="16" font-weight="bold" class="color10">&#10140; </text><text x="16" textLength="8" class="foreground"> </text><text x="24" textLength="8" class="color6">~</text><text x="32" textLength="56" class="foreground"> iredis</text><text x="88" textLength="8" class="background"> </text><text x="96" textLength="544" class="foreground">                                                                    </text></g><g id="g9"><text x="0" textLength="16" font-weight="bold" class="color10">&#10140; </text><text x="16" textLength="8" class="foreground"> </text><text x="24" textLength="8" class="color6">~</text><text x="32" textLength="608" class="foreground"> iredis                                                                     </text></g><g id="g10"><text x="0" textLength="8" class="background"> </text></g><g id="g11"><text x="0" textLength="112" class="foreground">iredis  0.8.11</text></g><g id="g12"><text x="0" textLength="160" class="foreground">redis-server  5.0.6 </text></g><g id="g13"><text x="0" textLength="200" class="foreground">Home:   https://iredis.io</text></g><g id="g14"><text x="0" textLength="256" class="foreground">Issues: https://iredis.io/issues</text></g><g id="g15"><text x="0" textLength="128" class="foreground">127.0.0.1:6379&gt; </text><text x="128" textLength="8" class="background"> </text><text x="136" textLength="504" class="foreground">                                                               </text></g><g id="g16"><text x="0" textLength="640" class="foreground">                                                                                </text></g><g id="g17"><text x="0" textLength="136" class="foreground">127.0.0.1:6379&gt; h</text><text x="136" textLength="8" class="background">e</text><text x="144" textLength="48" fill="#626262">lp get</text><text x="192" textLength="448" class="foreground">                                                        </text></g><g id="g18"><text x="136" textLength="112" fill="#ffffff"> HELP         </text><text x="248" textLength="8" fill="#000000"> </text></g><g id="g19"><text x="136" textLength="112" fill="#ffffff"> HSET         </text><text x="248" textLength="8" fill="#000000"> </text></g><g id="g20"><text x="136" textLength="112" fill="#ffffff"> HLEN         </text><text x="248" textLength="8" fill="#000000"> </text></g><g id="g21"><text x="136" textLength="112" fill="#ffffff"> HGET         </text><text x="248" textLength="8" fill="#000000"> </text></g><g id="g22"><text x="136" textLength="112" fill="#ffffff"> HDEL         </text><text x="248" textLength="8" fill="#000000"> </text></g><g id="g23"><text x="136" textLength="112" fill="#ffffff"> HVALS        </text><text x="248" textLength="8" fill="#000000"> </text></g><g id="g24"><text x="0" textLength="136" class="foreground">                 </text><text x="136" textLength="112" fill="#ffffff"> HSCAN        </text><text x="248" textLength="8" fill="#000000"> </text><text x="256" textLength="384" class="foreground">                                                </text></g><g id="g25"><text x="136" textLength="112" fill="#ffffff"> HMSET        </text><text x="248" textLength="8" fill="#000000"> </text></g><g id="g26"><text x="136" textLength="112" fill="#ffffff"> HMGET        </text><text x="248" textLength="8" fill="#000000"> </text></g><g id="g27"><text x="136" textLength="112" fill="#ffffff"> HKEYS        </text><text x="248" textLength="8" fill="#000000"> </text></g><g id="g28"><text x="136" textLength="112" fill="#ffffff"> HSETNX       </text><text x="248" textLength="8" fill="#000000"> </text></g><g id="g29"><text x="136" textLength="112" fill="#ffffff"> HSTRLEN      </text><text x="248" textLength="8" fill="#000000"> </text></g><g id="g30"><text x="136" textLength="112" fill="#ffffff"> HINCRBY      </text><text x="248" textLength="8" fill="#000000"> </text></g><g id="g31"><text x="136" textLength="112" fill="#ffffff"> HGETALL      </text><text x="248" textLength="8" fill="#000000"> </text></g><g id="g32"><text x="0" textLength="136" class="foreground">                 </text><text x="136" textLength="112" fill="#ffffff"> HEXISTS      </text><text x="248" textLength="8" fill="#000000"> </text><text x="256" textLength="384" class="foreground">                                                </text></g><g id="g33"><text x="0" textLength="144" class="foreground">127.0.0.1:6379&gt; he</text><text x="144" textLength="8" class="background">l</text><text x="152" textLength="40" fill="#626262">p get</text><text x="192" textLength="448" class="foreground">                                                        </text></g><g id="g34"><text x="136" textLength="8" class="foreground"> </text><text x="144" textLength="72" fill="#ffffff"> HELP    </text><text x="216" textLength="8" fill="#000000"> </text><text x="224" textLength="416" class="foreground">                                                    </text></g><g id="g35"><text x="136" textLength="8" class="foreground"> </text><text x="144" textLength="72" fill="#ffffff"> HEXISTS </text><text x="216" textLength="8" fill="#000000"> </text><text x="224" textLength="416" class="foreground">                                                    </text></g><g id="g36"><text x="8" textLength="632" class="foreground">                                                                               </text></g><g id="g37"><text x="0" textLength="152" class="foreground">127.0.0.1:6379&gt; hel</text><text x="152" textLength="8" class="background">p</text><text x="160" textLength="32" fill="#626262"> get</text><text x="192" textLength="448" class="foreground">                                                        </text></g><g id="g38"><text x="136" textLength="16" class="foreground">  </text><text x="152" textLength="56" fill="#ffffff"> HELP  </text><text x="208" textLength="8" fill="#000000"> </text><text x="216" textLength="424" class="foreground">                                                     </text></g><g id="g39"><text x="0" textLength="168" class="foreground">127.0.0.1:6379&gt; helop</text><text x="168" textLength="8" class="background"> </text><text x="176" textLength="464" class="foreground">                                                          </text></g><g id="g40"><text x="0" textLength="160" class="foreground">127.0.0.1:6379&gt; helo</text><text x="160" textLength="8" class="background"> </text><text x="168" textLength="472" class="foreground">                                                           </text></g><g id="g41"><text x="0" textLength="152" class="foreground">127.0.0.1:6379&gt; hel</text><text x="152" textLength="8" class="background"> </text><text x="160" textLength="480" class="foreground">                                                            </text></g><g id="g42"><text x="0" textLength="128" class="foreground">127.0.0.1:6379&gt; </text><text x="128" textLength="32" font-weight="bold" fill="#008700">help</text><text x="160" textLength="8" class="background"> </text><text x="168" textLength="24" fill="#626262">get</text><text x="192" textLength="448" class="foreground">                                                        </text></g><g id="g43"><text x="8" textLength="152" class="foreground">                   </text><text x="160" textLength="56" fill="#ffffff"> HELP  </text><text x="216" textLength="8" fill="#000000"> </text><text x="224" textLength="416" class="foreground">                                                    </text></g><g id="g44"><text x="0" textLength="128" class="foreground">127.0.0.1:6379&gt; </text><text x="128" textLength="32" font-weight="bold" fill="#008700">help</text><text x="160" textLength="8" class="foreground"> </text><text x="168" textLength="8" class="background">g</text><text x="176" textLength="16" fill="#626262">et</text><text x="192" textLength="448" class="foreground">                                                        </text></g><g id="g45"><text x="0" textLength="128" class="foreground">127.0.0.1:6379&gt; </text><text x="128" textLength="32" font-weight="bold" fill="#008700">help</text><text x="160" textLength="16" class="foreground"> g</text><text x="176" textLength="8" class="background">e</text><text x="184" textLength="8" fill="#626262">t</text><text x="192" textLength="448" class="foreground">                                                        </text></g><g id="g46"><text x="0" textLength="128" class="foreground">127.0.0.1:6379&gt; </text><text x="128" textLength="32" font-weight="bold" fill="#008700">help</text><text x="160" textLength="24" class="foreground"> ge</text><text x="184" textLength="8" class="background">t</text><text x="192" textLength="448" class="foreground">                                                        </text></g><g id="g47"><text x="0" textLength="128" class="foreground">127.0.0.1:6379&gt; </text><text x="128" textLength="32" font-weight="bold" fill="#008700">help</text><text x="160" textLength="32" class="foreground"> get</text><text x="192" textLength="8" class="background"> </text><text x="200" textLength="440" class="foreground">                                                       </text></g><g id="g48"><text x="0" textLength="136" class="foreground">Get the value of </text><text x="136" textLength="24" fill="#a8a8a8">key</text><text x="160" textLength="480" class="foreground">.                                                           </text></g><g id="g49"><text x="0" textLength="352" class="foreground">If the key does not exist the special value </text><text x="352" textLength="24" fill="#a8a8a8">nil</text><text x="376" textLength="264" class="foreground"> is returned.                    </text></g><g id="g50"><text x="0" textLength="352" class="foreground">An error is returned if the value stored at </text><text x="352" textLength="24" fill="#a8a8a8">key</text><text x="376" textLength="208" class="foreground"> is not a string, because </text><text x="584" textLength="24" fill="#a8a8a8">GET</text><text x="608" textLength="32" class="foreground">    </text></g><g id="g51"><text x="0" textLength="640" class="foreground">only handles string values.                                                     </text></g><g id="g52"><text x="0" textLength="48" font-weight="bold" fill="#5faf5f">return</text><text x="48" textLength="592" class="foreground">                                                                          </text></g><g id="g53"><text x="0" textLength="48" font-weight="bold" fill="#5faf5f">======</text><text x="48" textLength="592" class="foreground">                                                                          </text></g><g id="g54"><text x="0" textLength="264" class="foreground">@bulk-string-reply: the value of </text><text x="264" textLength="24" fill="#a8a8a8">key</text><text x="288" textLength="40" class="foreground">, or </text><text x="328" textLength="24" fill="#a8a8a8">nil</text><text x="352" textLength="48" class="foreground"> when </text><text x="400" textLength="24" fill="#a8a8a8">key</text><text x="424" textLength="128" class="foreground"> does not exist.</text></g><g id="g55"><text x="0" textLength="64" font-weight="bold" fill="#5faf5f">examples</text></g><g id="g56"><text x="0" textLength="64" font-weight="bold" fill="#5faf5f">========</text></g><g id="g57"><text x="0" textLength="136" fill="#a8a8a8">  GET nonexisting</text></g><g id="g58"><text x="0" textLength="152" fill="#a8a8a8">  SET mykey "Hello"</text></g><g id="g59"><text x="0" textLength="88" fill="#a8a8a8">  GET mykey</text></g><g id="g60"><text x="0" textLength="160" class="foreground">127.0.0.1:6379&gt; helo</text><text x="160" textLength="8" class="background"> </text><text x="168" textLength="24" fill="#626262">get</text><text x="192" textLength="448" class="foreground">                                                        </text></g><g id="g61"><text x="0" textLength="168" class="foreground">127.0.0.1:6379&gt; helo </text><text x="168" textLength="8" class="background">g</text><text x="176" textLength="16" fill="#626262">et</text><text x="192" textLength="448" class="foreground">                                                        </text></g><g id="g62"><text x="0" textLength="128" class="foreground">127.0.0.1:6379&gt; </text><text x="128" textLength="32" font-weight="bold" fill="#008700">help</text><text x="160" textLength="16" class="foreground"> l</text><text x="176" textLength="8" class="background">p</text><text x="184" textLength="16" fill="#626262">op</text><text x="200" textLength="440" class="foreground">                                                       </text></g><g id="g63"><text x="0" textLength="128" class="foreground">127.0.0.1:6379&gt; </text><text x="128" textLength="32" font-weight="bold" fill="#008700">help</text><text x="160" textLength="24" class="foreground"> ll</text><text x="184" textLength="8" class="background"> </text><text x="192" textLength="448" class="foreground">                                                        </text></g><g id="g64"><text x="0" textLength="128" class="foreground">127.0.0.1:6379&gt; </text><text x="128" textLength="32" font-weight="bold" fill="#008700">help</text><text x="160" textLength="32" class="foreground"> lle</text><text x="192" textLength="8" class="background"> </text><text x="200" textLength="440" class="foreground">                                                       </text></g><g id="g65"><text x="0" textLength="128" class="foreground">127.0.0.1:6379&gt; </text><text x="128" textLength="32" font-weight="bold" fill="#008700">help</text><text x="160" textLength="40" class="foreground"> llen</text><text x="200" textLength="8" class="background"> </text><text x="208" textLength="432" class="foreground">                                                      </text></g><g id="g66"><text x="0" textLength="328" class="foreground">Returns the length of the list stored at </text><text x="328" textLength="24" fill="#a8a8a8">key</text><text x="352" textLength="8" class="foreground">.</text></g><g id="g67"><text x="0" textLength="24" class="foreground">If </text><text x="24" textLength="24" fill="#a8a8a8">key</text><text x="48" textLength="448" class="foreground"> does not exist, it is interpreted as an empty list and </text><text x="496" textLength="8" fill="#a8a8a8">0</text><text x="504" textLength="104" class="foreground"> is returned.</text></g><g id="g68"><text x="0" textLength="368" class="foreground">An error is returned when the value stored at </text><text x="368" textLength="24" fill="#a8a8a8">key</text><text x="392" textLength="120" class="foreground"> is not a list.</text></g><g id="g69"><text x="0" textLength="48" font-weight="bold" fill="#5faf5f">return</text></g><g id="g70"><text x="0" textLength="48" font-weight="bold" fill="#5faf5f">======</text></g><g id="g71"><text x="0" textLength="336" class="foreground">@integer-reply: the length of the list at </text><text x="336" textLength="24" fill="#a8a8a8">key</text><text x="360" textLength="8" class="foreground">.</text></g><g id="g72"><text x="0" textLength="176" fill="#a8a8a8">  LPUSH mylist "World"</text></g><g id="g73"><text x="0" textLength="176" fill="#a8a8a8">  LPUSH mylist "Hello"</text></g><g id="g74"><text x="0" textLength="104" fill="#a8a8a8">  LLEN mylist</text></g><g id="g75"><text x="0" textLength="640" fill="#878787">127.0.0.1:6379&gt;                                                                 </text></g><g id="g76"><text x="0" textLength="640" class="foreground">Goodbye!                                                                        </text></g><g id="g77"><text x="0" textLength="16" font-weight="bold" class="color10">&#10140; </text><text x="16" textLength="8" class="foreground"> </text><text x="24" textLength="8" class="color6">~</text><text x="32" textLength="608" class="foreground">                                                                            </text></g></defs><g id="screen_view"><g><rect x="0" y="0" width="8" height="17" class="foreground"/><use xlink:href="#g1" y="0"/></g><g><rect x="40" y="476" width="8" height="17" class="foreground"/><use xlink:href="#g2" y="476"/></g><g><rect x="48" y="952" width="8" height="17" class="foreground"/><use xlink:href="#g3" y="952"/></g><g><rect x="56" y="1428" width="8" height="17" class="foreground"/><use xlink:href="#g4" y="1428"/></g><g><rect x="64" y="1904" width="8" height="17" class="foreground"/><use xlink:href="#g5" y="1904"/></g><g><rect x="72" y="2380" width="8" height="17" class="foreground"/><use xlink:href="#g6" y="2380"/></g><g><rect x="80" y="2856" width="8" height="17" class="foreground"/><use xlink:href="#g7" y="2856"/></g><g><rect x="88" y="3332" width="8" height="17" class="foreground"/><use xlink:href="#g8" y="3332"/></g><g><use xlink:href="#g9" y="3808"/><rect x="0" y="3825" width="8" height="17" class="foreground"/><use xlink:href="#g10" y="3825"/></g><g><use xlink:href="#g9" y="4284"/><use xlink:href="#g11" y="4301"/><use xlink:href="#g12" y="4318"/><use xlink:href="#g13" y="4335"/><use xlink:href="#g14" y="4352"/><rect x="128" y="4369" width="8" height="17" class="foreground"/><use xlink:href="#g15" y="4369"/><use xlink:href="#g16" y="4488"/><use xlink:href="#g16" y="4624"/></g><g><use xlink:href="#g9" y="4760"/><use xlink:href="#g11" y="4777"/><use xlink:href="#g12" y="4794"/><use xlink:href="#g13" y="4811"/><use xlink:href="#g14" y="4828"/><rect x="136" y="4845" width="8" height="17" class="foreground"/><use xlink:href="#g17" y="4845"/><rect x="136" y="4862" width="112" height="17" fill="#008787"/><rect x="248" y="4862" width="8" height="17" fill="#444444"/><use xlink:href="#g18" y="4862"/><rect x="136" y="4879" width="112" height="17" fill="#008787"/><rect x="248" y="4879" width="8" height="17" fill="#444444"/><use xlink:href="#g19" y="4879"/><rect x="136" y="4896" width="112" height="17" fill="#008787"/><rect x="248" y="4896" width="8" height="17" fill="#444444"/><use xlink:href="#g20" y="4896"/><rect x="136" y="4913" width="112" height="17" fill="#008787"/><rect x="248" y="4913" width="8" height="17" fill="#444444"/><use xlink:href="#g21" y="4913"/><rect x="136" y="4930" width="112" height="17" fill="#008787"/><rect x="248" y="4930" width="8" height="17" fill="#444444"/><use xlink:href="#g22" y="4930"/><rect x="136" y="4947" width="112" height="17" fill="#008787"/><rect x="248" y="4947" width="8" height="17" fill="#444444"/><use xlink:href="#g23" y="4947"/><rect x="136" y="4964" width="112" height="17" fill="#008787"/><rect x="248" y="4964" width="8" height="17" fill="#444444"/><use xlink:href="#g24" y="4964"/><rect x="136" y="4981" width="112" height="17" fill="#008787"/><rect x="248" y="4981" width="8" height="17" fill="#444444"/><use xlink:href="#g25" y="4981"/><rect x="136" y="4998" width="112" height="17" fill="#008787"/><rect x="248" y="4998" width="8" height="17" fill="#444444"/><use xlink:href="#g26" y="4998"/><rect x="136" y="5015" width="112" height="17" fill="#008787"/><rect x="248" y="5015" width="8" height="17" fill="#444444"/><use xlink:href="#g27" y="5015"/><rect x="136" y="5032" width="112" height="17" fill="#008787"/><rect x="248" y="5032" width="8" height="17" fill="#444444"/><use xlink:href="#g28" y="5032"/><rect x="136" y="5049" width="112" height="17" fill="#008787"/><rect x="248" y="5049" width="8" height="17" fill="#444444"/><use xlink:href="#g29" y="5049"/><rect x="136" y="5066" width="112" height="17" fill="#008787"/><rect x="248" y="5066" width="8" height="17" fill="#444444"/><use xlink:href="#g30" y="5066"/><rect x="136" y="5083" width="112" height="17" fill="#008787"/><rect x="248" y="5083" width="8" height="17" fill="#444444"/><use xlink:href="#g31" y="5083"/><rect x="136" y="5100" width="112" height="17" fill="#008787"/><rect x="248" y="5100" width="8" height="17" fill="#00afaf"/><use xlink:href="#g32" y="5100"/></g><g><use xlink:href="#g9" y="5236"/><use xlink:href="#g11" y="5253"/><use xlink:href="#g12" y="5270"/><use xlink:href="#g13" y="5287"/><use xlink:href="#g14" y="5304"/><rect x="144" y="5321" width="8" height="17" class="foreground"/><use xlink:href="#g33" y="5321"/><rect x="144" y="5338" width="72" height="17" fill="#008787"/><rect x="216" y="5338" width="8" height="17" fill="#444444"/><use xlink:href="#g34" y="5338"/><rect x="144" y="5355" width="72" height="17" fill="#008787"/><rect x="216" y="5355" width="8" height="17" fill="#444444"/><use xlink:href="#g35" y="5355"/><use xlink:href="#g36" y="5372"/><use xlink:href="#g36" y="5389"/><use xlink:href="#g36" y="5406"/><use xlink:href="#g36" y="5423"/><use xlink:href="#g16" y="5440"/><use xlink:href="#g36" y="5457"/><use xlink:href="#g36" y="5474"/><use xlink:href="#g36" y="5491"/><use xlink:href="#g36" y="5508"/><use xlink:href="#g36" y="5525"/><use xlink:href="#g36" y="5542"/><use xlink:href="#g36" y="5559"/><use xlink:href="#g16" y="5576"/></g><g><use xlink:href="#g9" y="5712"/><use xlink:href="#g11" y="5729"/><use xlink:href="#g12" y="5746"/><use xlink:href="#g13" y="5763"/><use xlink:href="#g14" y="5780"/><rect x="152" y="5797" width="8" height="17" class="foreground"/><use xlink:href="#g37" y="5797"/><rect x="152" y="5814" width="56" height="17" fill="#008787"/><rect x="208" y="5814" width="8" height="17" fill="#444444"/><use xlink:href="#g38" y="5814"/><use xlink:href="#g36" y="5831"/><use xlink:href="#g36" y="5848"/><use xlink:href="#g36" y="5865"/><use xlink:href="#g36" y="5882"/><use xlink:href="#g36" y="5899"/><use xlink:href="#g16" y="5916"/><use xlink:href="#g36" y="5933"/><use xlink:href="#g36" y="5950"/><use xlink:href="#g36" y="5967"/><use xlink:href="#g36" y="5984"/><use xlink:href="#g36" y="6001"/><use xlink:href="#g36" y="6018"/><use xlink:href="#g36" y="6035"/><use xlink:href="#g16" y="6052"/></g><g><use xlink:href="#g9" y="6188"/><use xlink:href="#g11" y="6205"/><use xlink:href="#g12" y="6222"/><use xlink:href="#g13" y="6239"/><use xlink:href="#g14" y="6256"/><rect x="168" y="6273" width="8" height="17" class="foreground"/><use xlink:href="#g39" y="6273"/><use xlink:href="#g36" y="6290"/><use xlink:href="#g36" y="6307"/><use xlink:href="#g36" y="6324"/><use xlink:href="#g36" y="6341"/><use xlink:href="#g36" y="6358"/><use xlink:href="#g36" y="6375"/><use xlink:href="#g16" y="6392"/><use xlink:href="#g36" y="6409"/><use xlink:href="#g36" y="6426"/><use xlink:href="#g36" y="6443"/><use xlink:href="#g36" y="6460"/><use xlink:href="#g36" y="6477"/><use xlink:href="#g36" y="6494"/><use xlink:href="#g36" y="6511"/><use xlink:href="#g16" y="6528"/></g><g><use xlink:href="#g9" y="6664"/><use xlink:href="#g11" y="6681"/><use xlink:href="#g12" y="6698"/><use xlink:href="#g13" y="6715"/><use xlink:href="#g14" y="6732"/><rect x="160" y="6749" width="8" height="17" class="foreground"/><use xlink:href="#g40" y="6749"/><use xlink:href="#g36" y="6766"/><use xlink:href="#g36" y="6783"/><use xlink:href="#g36" y="6800"/><use xlink:href="#g36" y="6817"/><use xlink:href="#g36" y="6834"/><use xlink:href="#g36" y="6851"/><use xlink:href="#g16" y="6868"/><use xlink:href="#g36" y="6885"/><use xlink:href="#g36" y="6902"/><use xlink:href="#g36" y="6919"/><use xlink:href="#g36" y="6936"/><use xlink:href="#g36" y="6953"/><use xlink:href="#g36" y="6970"/><use xlink:href="#g36" y="6987"/><use xlink:href="#g16" y="7004"/></g><g><use xlink:href="#g9" y="7140"/><use xlink:href="#g11" y="7157"/><use xlink:href="#g12" y="7174"/><use xlink:href="#g13" y="7191"/><use xlink:href="#g14" y="7208"/><rect x="152" y="7225" width="8" height="17" class="foreground"/><use xlink:href="#g41" y="7225"/><use xlink:href="#g36" y="7242"/><use xlink:href="#g36" y="7259"/><use xlink:href="#g36" y="7276"/><use xlink:href="#g36" y="7293"/><use xlink:href="#g36" y="7310"/><use xlink:href="#g36" y="7327"/><use xlink:href="#g16" y="7344"/><use xlink:href="#g36" y="7361"/><use xlink:href="#g36" y="7378"/><use xlink:href="#g36" y="7395"/><use xlink:href="#g36" y="7412"/><use xlink:href="#g36" y="7429"/><use xlink:href="#g36" y="7446"/><use xlink:href="#g36" y="7463"/><use xlink:href="#g16" y="7480"/></g><g><use xlink:href="#g9" y="7616"/><use xlink:href="#g11" y="7633"/><use xlink:href="#g12" y="7650"/><use xlink:href="#g13" y="7667"/><use xlink:href="#g14" y="7684"/><rect x="160" y="7701" width="8" height="17" class="foreground"/><use xlink:href="#g42" y="7701"/><rect x="160" y="7718" width="56" height="17" fill="#008787"/><rect x="216" y="7718" width="8" height="17" fill="#444444"/><use xlink:href="#g43" y="7718"/><use xlink:href="#g36" y="7735"/><use xlink:href="#g36" y="7752"/><use xlink:href="#g36" y="7769"/><use xlink:href="#g36" y="7786"/><use xlink:href="#g36" y="7803"/><use xlink:href="#g16" y="7820"/><use xlink:href="#g36" y="7837"/><use xlink:href="#g36" y="7854"/><use xlink:href="#g36" y="7871"/><use xlink:href="#g36" y="7888"/><use xlink:href="#g36" y="7905"/><use xlink:href="#g36" y="7922"/><use xlink:href="#g36" y="7939"/><use xlink:href="#g16" y="7956"/></g><g><use xlink:href="#g9" y="8092"/><use xlink:href="#g11" y="8109"/><use xlink:href="#g12" y="8126"/><use xlink:href="#g13" y="8143"/><use xlink:href="#g14" y="8160"/><rect x="168" y="8177" width="8" height="17" class="foreground"/><use xlink:href="#g44" y="8177"/><use xlink:href="#g36" y="8194"/><use xlink:href="#g36" y="8211"/><use xlink:href="#g36" y="8228"/><use xlink:href="#g36" y="8245"/><use xlink:href="#g36" y="8262"/><use xlink:href="#g36" y="8279"/><use xlink:href="#g16" y="8296"/><use xlink:href="#g36" y="8313"/><use xlink:href="#g36" y="8330"/><use xlink:href="#g36" y="8347"/><use xlink:href="#g36" y="8364"/><use xlink:href="#g36" y="8381"/><use xlink:href="#g36" y="8398"/><use xlink:href="#g36" y="8415"/><use xlink:href="#g16" y="8432"/></g><g><use xlink:href="#g9" y="8568"/><use xlink:href="#g11" y="8585"/><use xlink:href="#g12" y="8602"/><use xlink:href="#g13" y="8619"/><use xlink:href="#g14" y="8636"/><rect x="176" y="8653" width="8" height="17" class="foreground"/><use xlink:href="#g45" y="8653"/><use xlink:href="#g36" y="8670"/><use xlink:href="#g36" y="8687"/><use xlink:href="#g36" y="8704"/><use xlink:href="#g36" y="8721"/><use xlink:href="#g36" y="8738"/><use xlink:href="#g36" y="8755"/><use xlink:href="#g16" y="8772"/><use xlink:href="#g36" y="8789"/><use xlink:href="#g36" y="8806"/><use xlink:href="#g36" y="8823"/><use xlink:href="#g36" y="8840"/><use xlink:href="#g36" y="8857"/><use xlink:href="#g36" y="8874"/><use xlink:href="#g36" y="8891"/><use xlink:href="#g16" y="8908"/></g><g><use xlink:href="#g9" y="9044"/><use xlink:href="#g11" y="9061"/><use xlink:href="#g12" y="9078"/><use xlink:href="#g13" y="9095"/><use xlink:href="#g14" y="9112"/><rect x="184" y="9129" width="8" height="17" class="foreground"/><use xlink:href="#g46" y="9129"/><use xlink:href="#g36" y="9146"/><use xlink:href="#g36" y="9163"/><use xlink:href="#g36" y="9180"/><use xlink:href="#g36" y="9197"/><use xlink:href="#g36" y="9214"/><use xlink:href="#g36" y="9231"/><use xlink:href="#g16" y="9248"/><use xlink:href="#g36" y="9265"/><use xlink:href="#g36" y="9282"/><use xlink:href="#g36" y="9299"/><use xlink:href="#g36" y="9316"/><use xlink:href="#g36" y="9333"/><use xlink:href="#g36" y="9350"/><use xlink:href="#g36" y="9367"/><use xlink:href="#g16" y="9384"/></g><g><use xlink:href="#g9" y="9520"/><use xlink:href="#g11" y="9537"/><use xlink:href="#g12" y="9554"/><use xlink:href="#g13" y="9571"/><use xlink:href="#g14" y="9588"/><rect x="192" y="9605" width="8" height="17" class="foreground"/><use xlink:href="#g47" y="9605"/><use xlink:href="#g36" y="9622"/><use xlink:href="#g36" y="9639"/><use xlink:href="#g36" y="9656"/><use xlink:href="#g36" y="9673"/><use xlink:href="#g36" y="9690"/><use xlink:href="#g36" y="9707"/><use xlink:href="#g16" y="9724"/><use xlink:href="#g36" y="9741"/><use xlink:href="#g36" y="9758"/><use xlink:href="#g36" y="9775"/><use xlink:href="#g36" y="9792"/><use xlink:href="#g36" y="9809"/><use xlink:href="#g36" y="9826"/><use xlink:href="#g36" y="9843"/><use xlink:href="#g16" y="9860"/></g><g><use xlink:href="#g48" y="9996"/><use xlink:href="#g49" y="10013"/><use xlink:href="#g50" y="10030"/><use xlink:href="#g51" y="10047"/><use xlink:href="#g36" y="10064"/><use xlink:href="#g52" y="10081"/><use xlink:href="#g53" y="10098"/><use xlink:href="#g54" y="10132"/><use xlink:href="#g55" y="10166"/><use xlink:href="#g56" y="10183"/><use xlink:href="#g57" y="10217"/><use xlink:href="#g58" y="10234"/><use xlink:href="#g59" y="10251"/><rect x="128" y="10302" width="8" height="17" class="foreground"/><use xlink:href="#g15" y="10302"/><use xlink:href="#g16" y="10421"/></g><g><use xlink:href="#g48" y="10472"/><use xlink:href="#g49" y="10489"/><use xlink:href="#g50" y="10506"/><use xlink:href="#g51" y="10523"/><use xlink:href="#g36" y="10540"/><use xlink:href="#g52" y="10557"/><use xlink:href="#g53" y="10574"/><use xlink:href="#g54" y="10608"/><use xlink:href="#g55" y="10642"/><use xlink:href="#g56" y="10659"/><use xlink:href="#g57" y="10693"/><use xlink:href="#g58" y="10710"/><use xlink:href="#g59" y="10727"/><rect x="136" y="10778" width="8" height="17" class="foreground"/><use xlink:href="#g17" y="10778"/><rect x="136" y="10795" width="112" height="17" fill="#008787"/><rect x="248" y="10795" width="8" height="17" fill="#444444"/><use xlink:href="#g18" y="10795"/><rect x="136" y="10812" width="112" height="17" fill="#008787"/><rect x="248" y="10812" width="8" height="17" fill="#444444"/><use xlink:href="#g19" y="10812"/><rect x="136" y="10829" width="112" height="17" fill="#008787"/><rect x="248" y="10829" width="8" height="17" fill="#444444"/><use xlink:href="#g20" y="10829"/><rect x="136" y="10846" width="112" height="17" fill="#008787"/><rect x="248" y="10846" width="8" height="17" fill="#00afaf"/><use xlink:href="#g21" y="10846"/><rect x="136" y="10863" width="112" height="17" fill="#008787"/><rect x="248" y="10863" width="8" height="17" fill="#a8a8a8"/><use xlink:href="#g22" y="10863"/><rect x="136" y="10880" width="112" height="17" fill="#008787"/><rect x="248" y="10880" width="8" height="17" fill="#a8a8a8"/><use xlink:href="#g23" y="10880"/><rect x="136" y="10897" width="112" height="17" fill="#008787"/><rect x="248" y="10897" width="8" height="17" fill="#a8a8a8"/><use xlink:href="#g24" y="10897"/></g><g><use xlink:href="#g48" y="10948"/><use xlink:href="#g49" y="10965"/><use xlink:href="#g50" y="10982"/><use xlink:href="#g51" y="10999"/><use xlink:href="#g36" y="11016"/><use xlink:href="#g52" y="11033"/><use xlink:href="#g53" y="11050"/><use xlink:href="#g54" y="11084"/><use xlink:href="#g55" y="11118"/><use xlink:href="#g56" y="11135"/><use xlink:href="#g57" y="11169"/><use xlink:href="#g58" y="11186"/><use xlink:href="#g59" y="11203"/><rect x="144" y="11254" width="8" height="17" class="foreground"/><use xlink:href="#g33" y="11254"/><rect x="144" y="11271" width="72" height="17" fill="#008787"/><rect x="216" y="11271" width="8" height="17" fill="#444444"/><use xlink:href="#g34" y="11271"/><rect x="144" y="11288" width="72" height="17" fill="#008787"/><rect x="216" y="11288" width="8" height="17" fill="#444444"/><use xlink:href="#g35" y="11288"/><use xlink:href="#g36" y="11305"/><use xlink:href="#g36" y="11322"/><use xlink:href="#g36" y="11339"/><use xlink:href="#g36" y="11356"/><use xlink:href="#g16" y="11373"/></g><g><use xlink:href="#g48" y="11424"/><use xlink:href="#g49" y="11441"/><use xlink:href="#g50" y="11458"/><use xlink:href="#g51" y="11475"/><use xlink:href="#g36" y="11492"/><use xlink:href="#g52" y="11509"/><use xlink:href="#g53" y="11526"/><use xlink:href="#g54" y="11560"/><use xlink:href="#g55" y="11594"/><use xlink:href="#g56" y="11611"/><use xlink:href="#g57" y="11645"/><use xlink:href="#g58" y="11662"/><use xlink:href="#g59" y="11679"/><rect x="152" y="11730" width="8" height="17" class="foreground"/><use xlink:href="#g37" y="11730"/><rect x="152" y="11747" width="56" height="17" fill="#008787"/><rect x="208" y="11747" width="8" height="17" fill="#444444"/><use xlink:href="#g38" y="11747"/><use xlink:href="#g36" y="11764"/><use xlink:href="#g36" y="11781"/><use xlink:href="#g36" y="11798"/><use xlink:href="#g36" y="11815"/><use xlink:href="#g36" y="11832"/><use xlink:href="#g16" y="11849"/></g><g><use xlink:href="#g48" y="11900"/><use xlink:href="#g49" y="11917"/><use xlink:href="#g50" y="11934"/><use xlink:href="#g51" y="11951"/><use xlink:href="#g36" y="11968"/><use xlink:href="#g52" y="11985"/><use xlink:href="#g53" y="12002"/><use xlink:href="#g54" y="12036"/><use xlink:href="#g55" y="12070"/><use xlink:href="#g56" y="12087"/><use xlink:href="#g57" y="12121"/><use xlink:href="#g58" y="12138"/><use xlink:href="#g59" y="12155"/><rect x="160" y="12206" width="8" height="17" class="foreground"/><use xlink:href="#g60" y="12206"/><use xlink:href="#g36" y="12223"/><use xlink:href="#g36" y="12240"/><use xlink:href="#g36" y="12257"/><use xlink:href="#g36" y="12274"/><use xlink:href="#g36" y="12291"/><use xlink:href="#g36" y="12308"/><use xlink:href="#g16" y="12325"/></g><g><use xlink:href="#g48" y="12376"/><use xlink:href="#g49" y="12393"/><use xlink:href="#g50" y="12410"/><use xlink:href="#g51" y="12427"/><use xlink:href="#g36" y="12444"/><use xlink:href="#g52" y="12461"/><use xlink:href="#g53" y="12478"/><use xlink:href="#g54" y="12512"/><use xlink:href="#g55" y="12546"/><use xlink:href="#g56" y="12563"/><use xlink:href="#g57" y="12597"/><use xlink:href="#g58" y="12614"/><use xlink:href="#g59" y="12631"/><rect x="168" y="12682" width="8" height="17" class="foreground"/><use xlink:href="#g61" y="12682"/><use xlink:href="#g36" y="12699"/><use xlink:href="#g36" y="12716"/><use xlink:href="#g36" y="12733"/><use xlink:href="#g36" y="12750"/><use xlink:href="#g36" y="12767"/><use xlink:href="#g36" y="12784"/><use xlink:href="#g16" y="12801"/></g><g><use xlink:href="#g48" y="12852"/><use xlink:href="#g49" y="12869"/><use xlink:href="#g50" y="12886"/><use xlink:href="#g51" y="12903"/><use xlink:href="#g36" y="12920"/><use xlink:href="#g52" y="12937"/><use xlink:href="#g53" y="12954"/><use xlink:href="#g54" y="12988"/><use xlink:href="#g55" y="13022"/><use xlink:href="#g56" y="13039"/><use xlink:href="#g57" y="13073"/><use xlink:href="#g58" y="13090"/><use xlink:href="#g59" y="13107"/><rect x="160" y="13158" width="8" height="17" class="foreground"/><use xlink:href="#g40" y="13158"/><use xlink:href="#g36" y="13175"/><use xlink:href="#g36" y="13192"/><use xlink:href="#g36" y="13209"/><use xlink:href="#g36" y="13226"/><use xlink:href="#g36" y="13243"/><use xlink:href="#g36" y="13260"/><use xlink:href="#g16" y="13277"/></g><g><use xlink:href="#g48" y="13328"/><use xlink:href="#g49" y="13345"/><use xlink:href="#g50" y="13362"/><use xlink:href="#g51" y="13379"/><use xlink:href="#g36" y="13396"/><use xlink:href="#g52" y="13413"/><use xlink:href="#g53" y="13430"/><use xlink:href="#g54" y="13464"/><use xlink:href="#g55" y="13498"/><use xlink:href="#g56" y="13515"/><use xlink:href="#g57" y="13549"/><use xlink:href="#g58" y="13566"/><use xlink:href="#g59" y="13583"/><rect x="152" y="13634" width="8" height="17" class="foreground"/><use xlink:href="#g41" y="13634"/><use xlink:href="#g36" y="13651"/><use xlink:href="#g36" y="13668"/><use xlink:href="#g36" y="13685"/><use xlink:href="#g36" y="13702"/><use xlink:href="#g36" y="13719"/><use xlink:href="#g36" y="13736"/><use xlink:href="#g16" y="13753"/></g><g><use xlink:href="#g48" y="13804"/><use xlink:href="#g49" y="13821"/><use xlink:href="#g50" y="13838"/><use xlink:href="#g51" y="13855"/><use xlink:href="#g36" y="13872"/><use xlink:href="#g52" y="13889"/><use xlink:href="#g53" y="13906"/><use xlink:href="#g54" y="13940"/><use xlink:href="#g55" y="13974"/><use xlink:href="#g56" y="13991"/><use xlink:href="#g57" y="14025"/><use xlink:href="#g58" y="14042"/><use xlink:href="#g59" y="14059"/><rect x="160" y="14110" width="8" height="17" class="foreground"/><use xlink:href="#g42" y="14110"/><rect x="160" y="14127" width="56" height="17" fill="#008787"/><rect x="216" y="14127" width="8" height="17" fill="#444444"/><use xlink:href="#g43" y="14127"/><use xlink:href="#g36" y="14144"/><use xlink:href="#g36" y="14161"/><use xlink:href="#g36" y="14178"/><use xlink:href="#g36" y="14195"/><use xlink:href="#g36" y="14212"/><use xlink:href="#g16" y="14229"/></g><g><use xlink:href="#g48" y="14280"/><use xlink:href="#g49" y="14297"/><use xlink:href="#g50" y="14314"/><use xlink:href="#g51" y="14331"/><use xlink:href="#g36" y="14348"/><use xlink:href="#g52" y="14365"/><use xlink:href="#g53" y="14382"/><use xlink:href="#g54" y="14416"/><use xlink:href="#g55" y="14450"/><use xlink:href="#g56" y="14467"/><use xlink:href="#g57" y="14501"/><use xlink:href="#g58" y="14518"/><use xlink:href="#g59" y="14535"/><rect x="168" y="14586" width="8" height="17" class="foreground"/><use xlink:href="#g44" y="14586"/><use xlink:href="#g36" y="14603"/><use xlink:href="#g36" y="14620"/><use xlink:href="#g36" y="14637"/><use xlink:href="#g36" y="14654"/><use xlink:href="#g36" y="14671"/><use xlink:href="#g36" y="14688"/><use xlink:href="#g16" y="14705"/></g><g><use xlink:href="#g48" y="14756"/><use xlink:href="#g49" y="14773"/><use xlink:href="#g50" y="14790"/><use xlink:href="#g51" y="14807"/><use xlink:href="#g36" y="14824"/><use xlink:href="#g52" y="14841"/><use xlink:href="#g53" y="14858"/><use xlink:href="#g54" y="14892"/><use xlink:href="#g55" y="14926"/><use xlink:href="#g56" y="14943"/><use xlink:href="#g57" y="14977"/><use xlink:href="#g58" y="14994"/><use xlink:href="#g59" y="15011"/><rect x="176" y="15062" width="8" height="17" class="foreground"/><use xlink:href="#g62" y="15062"/><use xlink:href="#g36" y="15079"/><use xlink:href="#g36" y="15096"/><use xlink:href="#g36" y="15113"/><use xlink:href="#g36" y="15130"/><use xlink:href="#g36" y="15147"/><use xlink:href="#g36" y="15164"/><use xlink:href="#g16" y="15181"/></g><g><use xlink:href="#g48" y="15232"/><use xlink:href="#g49" y="15249"/><use xlink:href="#g50" y="15266"/><use xlink:href="#g51" y="15283"/><use xlink:href="#g36" y="15300"/><use xlink:href="#g52" y="15317"/><use xlink:href="#g53" y="15334"/><use xlink:href="#g54" y="15368"/><use xlink:href="#g55" y="15402"/><use xlink:href="#g56" y="15419"/><use xlink:href="#g57" y="15453"/><use xlink:href="#g58" y="15470"/><use xlink:href="#g59" y="15487"/><rect x="184" y="15538" width="8" height="17" class="foreground"/><use xlink:href="#g63" y="15538"/><use xlink:href="#g36" y="15555"/><use xlink:href="#g36" y="15572"/><use xlink:href="#g36" y="15589"/><use xlink:href="#g36" y="15606"/><use xlink:href="#g36" y="15623"/><use xlink:href="#g36" y="15640"/><use xlink:href="#g16" y="15657"/></g><g><use xlink:href="#g48" y="15708"/><use xlink:href="#g49" y="15725"/><use xlink:href="#g50" y="15742"/><use xlink:href="#g51" y="15759"/><use xlink:href="#g36" y="15776"/><use xlink:href="#g52" y="15793"/><use xlink:href="#g53" y="15810"/><use xlink:href="#g54" y="15844"/><use xlink:href="#g55" y="15878"/><use xlink:href="#g56" y="15895"/><use xlink:href="#g57" y="15929"/><use xlink:href="#g58" y="15946"/><use xlink:href="#g59" y="15963"/><rect x="192" y="16014" width="8" height="17" class="foreground"/><use xlink:href="#g64" y="16014"/><use xlink:href="#g36" y="16031"/><use xlink:href="#g36" y="16048"/><use xlink:href="#g36" y="16065"/><use xlink:href="#g36" y="16082"/><use xlink:href="#g36" y="16099"/><use xlink:href="#g36" y="16116"/><use xlink:href="#g16" y="16133"/></g><g><use xlink:href="#g48" y="16184"/><use xlink:href="#g49" y="16201"/><use xlink:href="#g50" y="16218"/><use xlink:href="#g51" y="16235"/><use xlink:href="#g36" y="16252"/><use xlink:href="#g52" y="16269"/><use xlink:href="#g53" y="16286"/><use xlink:href="#g54" y="16320"/><use xlink:href="#g55" y="16354"/><use xlink:href="#g56" y="16371"/><use xlink:href="#g57" y="16405"/><use xlink:href="#g58" y="16422"/><use xlink:href="#g59" y="16439"/><rect x="200" y="16490" width="8" height="17" class="foreground"/><use xlink:href="#g65" y="16490"/><use xlink:href="#g36" y="16507"/><use xlink:href="#g36" y="16524"/><use xlink:href="#g36" y="16541"/><use xlink:href="#g36" y="16558"/><use xlink:href="#g36" y="16575"/><use xlink:href="#g36" y="16592"/><use xlink:href="#g16" y="16609"/></g><g><use xlink:href="#g66" y="16677"/><use xlink:href="#g67" y="16694"/><use xlink:href="#g68" y="16711"/><use xlink:href="#g69" y="16745"/><use xlink:href="#g70" y="16762"/><use xlink:href="#g71" y="16796"/><use xlink:href="#g55" y="16830"/><use xlink:href="#g56" y="16847"/><use xlink:href="#g72" y="16881"/><use xlink:href="#g73" y="16898"/><use xlink:href="#g74" y="16915"/><rect x="128" y="16966" width="8" height="17" class="foreground"/><use xlink:href="#g15" y="16966"/><use xlink:href="#g16" y="17085"/></g><g><use xlink:href="#g66" y="17153"/><use xlink:href="#g67" y="17170"/><use xlink:href="#g68" y="17187"/><use xlink:href="#g69" y="17221"/><use xlink:href="#g70" y="17238"/><use xlink:href="#g71" y="17272"/><use xlink:href="#g55" y="17306"/><use xlink:href="#g56" y="17323"/><use xlink:href="#g72" y="17357"/><use xlink:href="#g73" y="17374"/><use xlink:href="#g74" y="17391"/><use xlink:href="#g75" y="17442"/><use xlink:href="#g76" y="17459"/><rect x="0" y="17476" width="8" height="17" class="foreground"/><use xlink:href="#g1" y="17476"/><use xlink:href="#g16" y="17561"/></g><g><use xlink:href="#g66" y="17629"/><use xlink:href="#g67" y="17646"/><use xlink:href="#g68" y="17663"/><use xlink:href="#g69" y="17697"/><use xlink:href="#g70" y="17714"/><use xlink:href="#g71" y="17748"/><use xlink:href="#g55" y="17782"/><use xlink:href="#g56" y="17799"/><use xlink:href="#g72" y="17833"/><use xlink:href="#g73" y="17850"/><use xlink:href="#g74" y="17867"/><use xlink:href="#g75" y="17918"/><use xlink:href="#g76" y="17935"/><rect x="40" y="17952" width="8" height="17" class="foreground"/><use xlink:href="#g2" y="17952"/><use xlink:href="#g16" y="18037"/></g><g><use xlink:href="#g66" y="18105"/><use xlink:href="#g67" y="18122"/><use xlink:href="#g68" y="18139"/><use xlink:href="#g69" y="18173"/><use xlink:href="#g70" y="18190"/><use xlink:href="#g71" y="18224"/><use xlink:href="#g55" y="18258"/><use xlink:href="#g56" y="18275"/><use xlink:href="#g72" y="18309"/><use xlink:href="#g73" y="18326"/><use xlink:href="#g74" y="18343"/><use xlink:href="#g75" y="18394"/><use xlink:href="#g76" y="18411"/><use xlink:href="#g77" y="18428"/><rect x="0" y="18445" width="8" height="17" class="foreground"/><use xlink:href="#g10" y="18445"/><use xlink:href="#g16" y="18513"/></g></g></svg>
</svg>